PathFileType	4	(X/Y/Z)	C:/Users/opensim2020/Desktop/walking_exp_matlab/subject01_walking14_straight_02.trc																																																																																																																												
DataRate	CameraRate	NumFrames	NumMarkers	Units	OrigDataRate	OrigDataStartFrame	OrigNumFrames																																																																																																																								
100	100	5	42	mm	100	1162	125																																																																																																																								
Frame#	Time	LFHD			RFHD			LBHD			RBHD			C7			T10			CLAV			STRN			RBAK			LSHO			LUPA			LELB			LFRM			LWRA			LWRB			LFIN			RSHO			RUPA			RELB			RFRM			RWRA			RWRB			RFIN			LASI			RASI			LPSI			RPSI			LTHI			LKNE			LTIB			LANK			LHEE			LTOE			RTHI			RKNE			RTIB			RANK			RHEE			RTOE			*39			*40			*41		
		X1	Y1	Z1	X2	Y2	Z2	X3	Y3	Z3	X4	Y4	Z4	X5	Y5	Z5	X6	Y6	Z6	X7	Y7	Z7	X8	Y8	Z8	X9	Y9	Z9	X10	Y10	Z10	X11	Y11	Z11	X12	Y12	Z12	X13	Y13	Z13	X14	Y14	Z14	X15	Y15	Z15	X16	Y16	Z16	X17	Y17	Z17	X18	Y18	Z18	X19	Y19	Z19	X20	Y20	Z20	X21	Y21	Z21	X22	Y22	Z22	X23	Y23	Z23	X24	Y24	Z24	X25	Y25	Z25	X26	Y26	Z26	X27	Y27	Z27	X28	Y28	Z28	X29	Y29	Z29	X30	Y30	Z30	X31	Y31	Z31	X32	Y32	Z32	X33	Y33	Z33	X34	Y34	Z34	X35	Y35	Z35	X36	Y36	Z36	X37	Y37	Z37	X38	Y38	Z38	X39	Y39	Z39	X40	Y40	Z40	X41	Y41	Z41	X42	Y42	Z42
																																																																																																																															
16	0.15	-797.0517	1655.85803	1027.271	-756.20074	1662.93408	1134.38513	-904.14673	1605.87451	1064.78687	-864.71765	1612.40588	1178.90527	-925.22729	1420.29443	1093.16821	-976.46472	1127.86987	1096.63879	-780.85748	1347.38281	1085.66235	-745.65417	1191.60388	1083.41785	-986.26355	1231.5249	1172.81702	-845.86914	1377.61353	926.83142	-916.47955	1203.28235	842.84503	-973.97339	1068.15198	848.05347	-986.6709	958.09241	817.91571	-965.84113	818.27557	822.65033	-1019.46472	840.16254	808.76141	-1011.83301	759.45917	787.11261	-839.7807	1388.44397	1236.81873	-908.08881	1201.70276	1348.30005	-896.84271	1077.2384	1375.44397	-800.63086	998.26624	1403.40186	-665.60474	968.09216	1382.08899	-696.68115	936.14801	1417.39063	-616.37164	912.73108	1425.72437	-798.3866	921.0686	996.55634	-818.20343	912.09991	1212.24707	-987.22095	933.30676	1025.16138	-999.20032	940.22571	1168.60229	-741.20355	608.72186	939.07373	-709.83032	481.10437	964.54932	-732.02948	292.3811	954.50177	-741.06525	74.86909	1012.00262	-784.76794	44.32446	1064.90833	-595.02759	42.42112	1010.00238	-955.23871	598.57922	1277.08691	-997.06104	442.60056	1269.00757	-1145.08813	343.16748	1267.24121	-1285.22644	185.05908	1233.30273	-1328.59692	193.14374	1173.23926	-1242.88	42.47187	1234.28516	-774.70453	1695.9093	1115.44141	-1973.09485	1023.50104	3102.08008	-2012.51392	1022.07233	3140.80127
17	0.16	-783.25586	1655.80566	1024.77246	-742.21051	1663.22192	1132.01892	-890.48364	1606.34912	1062.7124	-850.86139	1613.25549	1176.74475	-912.13812	1420.21973	1091.55188	-962.40942	1127.9314	1095.67529	-767.32361	1347.84375	1084.22168	-731.62915	1192.28491	1082.52307	-972.70264	1231.87036	1171.65173	-832.28302	1377.75403	925.52002	-901.36169	1202.64294	841.96179	-958.06024	1067.00146	847.24591	-969.50732	956.82654	817.62012	-947.46991	817.15967	823.03699	-1001.24213	838.61456	808.68762	-992.88165	757.58771	787.67169	-826.41858	1388.93799	1235.26453	-896.53448	1202.42371	1346.15857	-886.20984	1077.87366	1372.91565	-791.23041	997.25226	1400.92749	-656.67041	964.5899	1379.71082	-688.38989	933.1814	1414.98792	-608.5448	908.19653	1423.33228	-784.13373	922.10144	995.50854	-803.50562	911.9718	1210.78015	-972.99036	933.99969	1024.99011	-984.24194	939.51227	1168.57544	-729.11542	607.82153	938.98645	-699.20471	479.60513	964.36212	-724.05768	290.58624	955.32532	-739.22595	74.37065	1012.57074	-784.30414	44.66578	1065.09937	-593.4472	41.42617	1010.24573	-933.69446	595.7403	1277.4458	-972.71906	439.5845	1269.95679	-1123.60962	344.60855	1268.18372	-1269.42029	191.9001	1234.7384	-1312.06848	203.57924	1174.99927	-1236.61304	47.01185	1234.07861	-760.60516	1695.96326	1112.6106	-1973.07581	1023.53387	3101.87231	-2012.55493	1022.14673	3140.72559
18	0.17	-769.37726	1656.00964	1022.56787	-728.22601	1663.74316	1129.69153	-876.73633	1606.99731	1060.77405	-837.04041	1614.34619	1174.95178	-899.22803	1420.44531	1090.26013	-948.48181	1128.22803	1094.82214	-753.87439	1348.41809	1083.22095	-717.93274	1192.98181	1081.63904	-959.289	1232.3147	1170.61719	-818.74799	1378.07141	924.31549	-886.27332	1202.15442	841.05725	-941.50989	1065.92188	846.54346	-951.7663	955.4964	817.2002	-928.30261	816.00916	823.50183	-982.07855	836.89471	808.44183	-972.88654	755.83478	788.09631	-813.18829	1389.46643	1234.08472	-884.82288	1203.25745	1344.42017	-875.72034	1078.54468	1370.41406	-782.1413	995.97937	1398.42859	-648.10138	960.57935	1377.27429	-680.51691	929.74384	1412.64429	-601.24805	903.02344	1420.85266	-770.3952	923.18347	994.24146	-788.72644	912.14484	1209.26587	-959.0943	934.84509	1024.88379	-969.88849	938.8551	1168.69238	-717.75671	606.55646	938.87152	-689.75909	477.31262	963.93933	-718.53455	288.99188	955.79089	-738.50214	74.22955	1013.07416	-784.05981	44.8857	1065.19812	-592.41541	40.4357	1010.36523	-911.88818	592.87274	1277.50378	-947.08246	436.40601	1270.55396	-1100.9259	346.06335	1269.67395	-1251.40845	199.31316	1235.20667	-1293.69812	214.92455	1176.34973	-1227.56165	53.66208	1234.34827	-746.487	1696.41125	1110.31116	-1973.10498	1023.4411	3101.97534	-2012.42725	1022.15656	3140.69482
19	0.18	-755.54559	1656.48352	1020.45538	-714.14618	1664.43823	1127.50378	-862.93652	1607.93115	1059.01904	-823.0603	1615.5188	1172.97803	-886.16364	1420.99854	1089.01453	-934.71582	1128.77393	1094.026	-740.53693	1349.17603	1082.0437	-704.46771	1193.79248	1080.91431	-946.01123	1233.01624	1169.6665	-805.2182	1378.53333	923.16412	-871.13123	1201.7334	840.22162	-924.54071	1064.81482	845.79938	-933.41736	954.09711	816.86157	-908.19159	814.98145	823.98236	-962.11176	835.01398	808.38873	-951.64551	754.11536	788.55646	-800.15247	1390.17798	1232.96802	-873.09363	1204.08838	1342.89392	-865.22766	1079.12988	1367.82568	-773.31787	994.43481	1396.00684	-639.90137	956.13495	1374.91064	-673.1189	925.84619	1410.00781	-594.52985	897.28894	1418.35156	-757.07098	923.99329	993.07172	-774.89453	912.26935	1208.26013	-945.53314	935.78351	1024.75891	-955.87903	938.21429	1168.92175	-707.57117	604.98273	938.2511	-681.17004	475.13559	963.17865	-714.72974	288.38284	955.51538	-737.98108	74.23199	1013.2063	-783.8645	45.0088	1065.3689	-591.69183	39.91	1010.52759	-889.73492	590.21356	1277.48096	-920.23035	433.29684	1270.69849	-1076.53979	347.31784	1271.20178	-1231.59595	207.58151	1235.35413	-1273.98291	226.77774	1177.54041	-1215.71423	61.50167	1234.91223	-732.69794	1696.85645	1107.76318	-1972.84875	1023.20349	3102.76611	-2012.66187	1022.47968	3140.43823
20	0.19	-741.54425	1657.12219	1018.48828	-699.87573	1665.32153	1125.66565	-849.0976	1609.13281	1057.43091	-808.99792	1616.97729	1171.26501	-872.82544	1421.96716	1087.77234	-921.1889	1129.61877	1093.31787	-727.2522	1350.11206	1081.34229	-691.14557	1194.67664	1080.4082	-932.8905	1234.03784	1168.71021	-791.73901	1379.19543	922.11328	-855.74304	1201.51318	839.44922	-907.74951	1063.80933	844.79407	-914.53827	952.66473	816.40955	-887.22833	814.01813	824.6488	-941.38098	833.08563	808.36487	-929.38239	752.26782	789.21729	-787.25195	1391.15088	1232.26416	-861.22388	1205.01331	1341.60815	-854.78259	1079.72998	1365.26563	-764.76617	992.67584	1393.46423	-632.08484	951.23206	1372.52942	-666.10413	921.86267	1407.64758	-588.30731	891.12769	1415.65466	-744.08228	924.82117	991.82227	-761.23547	912.78302	1207.31396	-932.70184	936.85938	1024.85474	-942.20898	937.63605	1169.21375	-698.08203	604.09692	937.46155	-673.44092	473.53415	962.18835	-711.51202	288.08948	955.12549	-737.72156	74.28284	1013.20886	-784.10126	45.40561	1065.06995	-591.48254	39.38133	1010.0506	-867.3316	587.71167	1277.05396	-892.89557	430.11429	1270.23645	-1050.81604	348.66074	1272.64185	-1210.1449	215.71288	1234.79138	-1252.48413	237.9247	1177.51404	-1201.31152	69.17788	1235.86475	-718.4743	1697.86304	1105.80664	-1973.12744	1023.4906	3102.04028	-2012.54431	1022.09509	3140.85254
